<svg id="Layer_1" data-name="Layer 1" xmlns="http://www.w3.org/2000/svg" xmlns:xlink="http://www.w3.org/1999/xlink" viewBox="0 0 51.68 64"><defs><clipPath id="clip-path"><path d="M51.68,29.53,34.46,46.77,51.68,64H32L14.76,46.77,32,29.53ZM32,0,0,32l9.85,9.84L51.68,0Z" style="fill:none"/></clipPath><linearGradient id="linear-gradient" x1="14678.66" y1="-8625.84" x2="14797.68" y2="-8506.83" gradientTransform="matrix(0.06, 0, 0, -0.06, -876.94, -472.97)" gradientUnits="userSpaceOnUse"><stop offset="0" stop-color="#1a237e" stop-opacity="0.4"/><stop offset="1" stop-color="#1a237e" stop-opacity="0"/></linearGradient><radialGradient id="radial-gradient" cx="67071.81" cy="36343.04" r="5082.89" gradientTransform="translate(-1031.71 -555.46) scale(0.02)" gradientUnits="userSpaceOnUse"><stop offset="0" stop-color="#fff" stop-opacity="0.1"/><stop offset="1" stop-color="#fff" stop-opacity="0"/></radialGradient></defs><g style="clip-path:url(#clip-path)"><path d="M14.77,46.77l9.84,9.84L51.68,29.53H32Z" style="fill:#39cefd"/></g><g style="clip-path:url(#clip-path)"><path d="M32,0H51.68L9.85,41.84,0,32Z" style="fill:#39cefd"/></g><g style="clip-path:url(#clip-path)"><path d="M24.61,56.61,32,64H51.68L34.46,46.77Z" style="fill:#03569b"/></g><g style="clip-path:url(#clip-path)"><path d="M39.21,51.55l-4.75-4.78-9.85,9.84Z" style="fill:url(#linear-gradient)"/></g><g style="clip-path:url(#clip-path)"><path d="M14.77,46.76l9.84-9.84,9.85,9.84-9.85,9.85Z" style="fill:#16b9fd"/></g><path d="M51.68,29.53,34.46,46.77,51.68,64H32L14.76,46.77,32,29.53ZM32,0,0,32l9.85,9.84L51.68,0Z" style="fill:url(#radial-gradient)"/></svg>